# xmcd
#
# Track frame offsets:
#	151
#	32063
#	68374
#	88908
#	107722
#	133570
#	158696
#	176344
#	193292
#	217425
#	235696
#
# Disc length: 3780 seconds
#
# Revision: 1
# Processed by: cddbd v1.5.2PL0 Copyright (c) Steve Scherf et al.
# Submitted via: audiograbber 1.83.01
#
DISCID=960ec20b
DTITLE=Gwen Stefanie - Maximum Gwen Stefanie
DYEAR=2005
DGENRE=Pop
TTITLE0=Renaissance woman
TTITLE1=Testing times
TTITLE2=Art and Commerce
TTITLE3=New Interests
TTITLE4=Highest Echelons
TTITLE5=New ground
TTITLE6=Sex kitten
TTITLE7=Just beautiful
TTITLE8=Genere Bending
TTITLE9=Private Passions
TTITLE10=Vitality personified
EXTD=
EXTT0=
EXTT1=
EXTT2=
EXTT3=
EXTT4=
EXTT5=
EXTT6=
EXTT7=
EXTT8=
EXTT9=
EXTT10=
PLAYORDER=
